#tb 0: 1/44100
#media_type 0: audio
#codec_id 0: pcm_s16le
#sample_rate 0: 44100
#channel_layout_name 0: stereo
0,          0,          0,     4096,    16384, 0x02ebe66b
0,       4096,       4096,     4096,    16384, 0x35bfe081
0,       8192,       8192,     4096,    16384, 0x3f90e0a9
0,      12288,      12288,     4096,    16384, 0xd389dc43
0,      16384,      16384,     4096,    16384, 0x9d5add49
0,      20480,      20480,     4096,    16384, 0x378ee333
0,      24576,      24576,     4096,    16384, 0xabf6df0f
0,      28672,      28672,     4096,    16384, 0xedefe76f
0,      32768,      32768,     4096,    16384, 0x02ebe66b
0,      36864,      36864,     4096,    16384, 0x35bfe081
0,      40960,      40960,     4096,    16384, 0xdbc2b3b9
0,      45056,      45056,     4096,    16384, 0xe92bd835
0,      49152,      49152,     4096,    16384, 0x1126dca3
0,      53248,      53248,     4096,    16384, 0x9647edcf
0,      57344,      57344,     4096,    16384, 0x5cc345aa
0,      61440,      61440,     4096,    16384, 0x19d7bd51
0,      65536,      65536,     4096,    16384, 0x19eccef7
0,      69632,      69632,     4096,    16384, 0x4b68eeed
0,      73728,      73728,     4096,    16384, 0x0b3d1bfc
0,      77824,      77824,     4096,    16384, 0xe9b2e069
0,      81920,      81920,     4096,    16384, 0xcaa5590e
0,      86016,      86016,     4096,    16384, 0x47d0b227
0,      90112,      90112,     4096,    16384, 0x446ba7a4
0,      94208,      94208,     4096,    16384, 0x299b2e17
0,      98304,      98304,     4096,    16384, 0xc51affa2
0,     102400,     102400,     4096,    16384, 0xb4970fcf
0,     106496,     106496,     4096,    16384, 0xe48af9fc
0,     110592,     110592,     4096,    16384, 0xc2beffbb
0,     114688,     114688,     4096,    16384, 0xb9d99627
0,     118784,     118784,     4096,    16384, 0xb65a2086
0,     122880,     122880,     4096,    16384, 0x6386714b
0,     126976,     126976,     4096,    16384, 0x92a3171e
0,     131072,     131072,     4096,    16384, 0x3f5dbf77
0,     135168,     135168,     4096,    16384, 0x8fd7066a
0,     139264,     139264,     4096,    16384, 0xb55cc131
0,     143360,     143360,     4096,    16384, 0x0bd0e3d3
0,     147456,     147456,     4096,    16384, 0x068cbebb
0,     151552,     151552,     4096,    16384, 0x912addc9
0,     155648,     155648,     4096,    16384, 0xa14b7e11
0,     159744,     159744,     4096,    16384, 0x207f2e6e
0,     163840,     163840,     4096,    16384, 0x1695e8cf
0,     167936,     167936,     4096,    16384, 0x7897f411
0,     172032,     172032,     4096,    16384, 0x4a1fb90d
0,     176128,     176128,     4096,    16384, 0x8a13aa1f
0,     180224,     180224,     4096,    16384, 0x9464cd4d
0,     184320,     184320,     4096,    16384, 0x54a494a7
0,     188416,     188416,     4096,    16384, 0x9a2a024c
0,     192512,     192512,     4096,    16384, 0x84413452
0,     196608,     196608,     4096,    16384, 0xefc011ca
0,     200704,     200704,     4096,    16384, 0x685e1356
0,     204800,     204800,     4096,    16384, 0x986e1942
0,     208896,     208896,     4096,    16384, 0xbf491b8e
0,     212992,     212992,     4096,    16384, 0xe13df66b
0,     217088,     217088,     4096,    16384, 0x00eb2f1a
0,     221184,     221184,     4096,    16384, 0x5771c179
0,     225280,     225280,     4096,    16384, 0x34e86e68
0,     229376,     229376,     4096,    16384, 0x8db8b1f7
0,     233472,     233472,     4096,    16384, 0x5187b06d
0,     237568,     237568,     4096,    16384, 0x8067aa81
0,     241664,     241664,     4096,    16384, 0x8a39a831
0,     245760,     245760,     4096,    16384, 0x9464cd4d
0,     249856,     249856,     4096,    16384, 0x54a494a7
0,     253952,     253952,     4096,    16384, 0x9a2a024c
0,     258048,     258048,     4096,    16384, 0x84413452
0,     262144,     262144,     2456,     9824, 0x62e94985
